<svg xmlns="http://www.w3.org/2000/svg" width="96" height="128" viewBox="0 0 96 128"><defs><linearGradient id="c" x1="0" y1="0" x2="1" y2="1"><stop stop-color="#6b2430"/><stop offset="1" stop-color="#260d16"/></linearGradient><linearGradient id="m"><stop stop-color="#d2bd8b"/><stop offset="1" stop-color="#66543b"/></linearGradient></defs><g stroke-linejoin="round"><path d="M34 38 Q48 29 62 38 L70 96 Q60 112 48 114 Q34 112 24 98 Z" fill="url(#c)" stroke="#160b10" stroke-width="3"/><path d="M34 38 Q33 22 48 16 Q64 22 62 39 L55 47 H40 Z" fill="#17141a" stroke="#09080a" stroke-width="3"/><path d="M39 31 Q48 25 57 31 L54 40 H42 Z" fill="#b9ad96"/><path d="M28 47 Q20 50 18 65 L29 68 L37 50 Z" fill="url(#m)" stroke="#332a20" stroke-width="2"/><path d="M63 47 Q73 52 76 65 L65 69 L57 50 Z" fill="url(#m)" stroke="#332a20" stroke-width="2"/><path d="M35 98 L32 116 L43 116 L47 99 Z" fill="#17151a"/><path d="M50 99 L54 116 L65 116 L61 97 Z" fill="#17151a"/><path d="M29 61 Q47 72 67 61" fill="none" stroke="#c3ab77" stroke-width="2"/><path d="M31 67 Q48 78 65 67" fill="none" stroke="#8f2434" stroke-width="2"/><path d="M65 55 L82 98" stroke="#cdbd9e" stroke-width="4"/><path d="M77 91 L87 88" stroke="#8c6f4e" stroke-width="3"/><circle cx="48" cy="53" r="3" fill="#b3925c"/></g></svg>